<?xml version="1.0" encoding="utf-8"?>
<!-- Generator: Adobe Illustrator 15.0.2, SVG Export Plug-In . SVG Version: 6.00 Build 0)  -->
<!DOCTYPE svg PUBLIC "-//W3C//DTD SVG 1.1//EN" "http://www.w3.org/Graphics/SVG/1.1/DTD/svg11.dtd" [
	<!ENTITY ns_extend "http://ns.adobe.com/Extensibility/1.0/">
	<!ENTITY ns_ai "http://ns.adobe.com/AdobeIllustrator/10.0/">
	<!ENTITY ns_graphs "http://ns.adobe.com/Graphs/1.0/">
	<!ENTITY ns_vars "http://ns.adobe.com/Variables/1.0/">
	<!ENTITY ns_imrep "http://ns.adobe.com/ImageReplacement/1.0/">
	<!ENTITY ns_sfw "http://ns.adobe.com/SaveForWeb/1.0/">
	<!ENTITY ns_custom "http://ns.adobe.com/GenericCustomNamespace/1.0/">
	<!ENTITY ns_adobe_xpath "http://ns.adobe.com/XPath/1.0/">
]>
<svg version="1.1" id="Layer_1" xmlns:x="&ns_extend;" xmlns:i="&ns_ai;" xmlns:graph="&ns_graphs;"
	 xmlns="http://www.w3.org/2000/svg" xmlns:xlink="http://www.w3.org/1999/xlink" x="0px" y="0px" width="432px" height="324px"
	 viewBox="0 0 432 324" enable-background="new 0 0 432 324" xml:space="preserve">
<metadata>
	<sfw  xmlns="&ns_sfw;">
		<slices></slices>
		<sliceSourceBounds  height="324.002" width="432.005" x="216.498" y="197.499" bottomLeftOrigin="true"></sliceSourceBounds>
	</sfw>
</metadata>
<g>
	<path fill="#FFFFFF" d="M189.879,40.332c1.682,0.45,3.393,0.778,5.087,1.148c2.29,0.827,4.23,2.361,6.052,3.935
		c1.947,1.53,3.429,3.575,5.486,4.968c2.826,1.861,4.511,4.896,6.455,7.567c2.466,2.747,5.681,5.375,6.188,9.263
		c0.969,5.483,1.513,11.379,4.878,16.023c0.728,0.896,1.376,2.009,2.526,2.391c0.375-2.286,0.749-4.568,1.013-6.869
		c0.418-2.729,1.396-5.607,3.633-7.383c1.383-0.468,2.869,0.255,3.924,1.138c2.261,1.965,3.309,4.863,4.28,7.606
		c1.998,5.699,3.503,11.754,2.92,17.834c-0.655,4.547-1.848,9-2.405,13.562c-0.817,4.724-1.271,9.512-2.333,14.188
		c-0.831-0.083-1.663-0.166-2.498-0.245c-0.374-4.989-0.194-10.004-0.651-14.99c-0.438-7.605-2.983-15.065-2.191-22.733
		c2.308,0.677,4.772,2.135,5.307,4.669c0.993,3.971-0.896,7.779-1.822,11.553c3.867-2.405,5.688-7.96,3.406-12.035
		c-1.505-2.956-4.18-5.015-6.329-7.463l-0.047-0.31c0.765-2.935,2.023-5.725,2.736-8.674c-0.709,0.012-1.422,0.052-2.131,0.116
		c-1.041,5.133-3.086,9.997-4.437,15.048c-0.181,1.404,0.145,2.813,0.386,4.19c0.937,5.659,2.818,11.253,2.376,17.061
		c-0.151,9.248,1.063,18.457,0.938,27.706c0.047,7.045-0.91,14.178-3.557,20.743c-5.45,12.034-13.255,23.104-23.295,31.752
		c-4.079,3.503-9.313,5.238-14.466,6.455c-3.354,0.756-6.745,1.896-10.234,1.364c-5.324-0.808-10.112-3.449-14.771-6.013
		c-7.391-4.137-14.399-9.307-19.415-16.229c-8.104-9.54-12.301-21.499-17.208-32.821c-1.631-3.48-2.49-7.301-4.527-10.591
		c-0.848-1.329-1.818-2.682-3.272-3.398c1.308,7.294,5.169,13.77,7.628,20.688c-2.603-0.193-5.598-0.626-7.281-2.862
		c-5.056-6.311-9.742-13.031-12.929-20.499c-0.461-1.151-0.436-2.497,0.212-3.574c1.136-2.06,2.085-4.212,3.172-6.296
		c0.979,0.835,1.624,1.962,2.365,2.994c2.113,3.129,3.96,6.458,6.487,9.285c-0.043-3.122-0.976-6.151-2.06-9.054
		c-0.678-1.429-1.202-2.996-2.266-4.194c-4.475-3.6-10.569-5.091-14.162-9.792c0.857-0.846,1.517-2.121,2.676-2.526
		c3.672,1.433,6.281,4.536,9.342,6.883c0.595-7.013-0.582-14.015-1.804-20.897c-0.335-1.922-1.631-3.456-2.341-5.234
		c-0.518-1.188-0.374-2.521-0.575-3.776c-0.26-2.084-1.403-3.98-1.356-6.116c-0.151-1.516,0.745-2.857,0.796-4.353
		c0.097-1.847,0.954-3.506,1.569-5.212c0.925-2.266,2.817-3.874,4.349-5.706c0.976-1.544,2.703-2.315,3.897-3.654
		c3.472-3.362,8.608-3.575,13.155-3.772c2.71-0.194,5.22,0.929,7.858,1.268c2.025,0.425,4.158,0.471,6.045,1.418
		c1.973,1.008,4.566,1.022,6.267-0.533c4.032-3.348,7.845-7.265,12.903-9.033c6.339-2.541,13.204-3.175,19.706-5.147
		C186.956,40.79,188.367,39.836,189.879,40.332 M205.524,84.494c-2.455-0.67-5.142-1.257-7.621-0.364
		c-5.169,1.494-10.13,3.622-14.977,5.954c-1.998,0.9-3.215,3.064-3.269,5.213c-0.065,1.904,0.193,3.853,0.946,5.609
		c4.724-3.427,9.587-6.757,15.02-8.972c3.585-1.559,7.416-2.451,11.271-2.991c3.247-0.317,6.124,1.493,8.909,2.868
		c1.087,0.612,1.624-0.979,2.301-1.559C213.862,88.447,209.936,85.905,205.524,84.494 M204.153,94.365
		c-2.772-0.403-5.584-0.429-8.377-0.328c-3.425,0.144-6.471,2.012-9.044,4.133c-2.707,2.369-5.063,5.458-5.709,9.068
		c1.375-0.735,2.277-2.053,3.321-3.168c2.089-2.336,3.896-5.047,6.601-6.726C194.995,94.991,200.057,96.528,204.153,94.365
		 M210.756,98.39c-5.17-1.072-10.501-1.39-15.754-0.813c-1.39,0.205-2.891,0.338-4.039,1.238c-2.498,1.894-4.752,4.485-5.271,7.675
		c1.993-0.918,3.582-2.478,5.386-3.69c1.738,0.904,3.271,2.646,5.4,2.392c2.706-0.396,4.133-3.111,6.536-4.108
		c2.451-0.407,4.957-0.054,7.432-0.097C210.604,100.128,210.705,99.261,210.756,98.39 M141.653,97.947
		c-5.576-0.854-11.617,0.979-15.396,5.271c-2.47,2.171-2.063,5.765-2.103,8.724c1.939-1.278,3.254-3.291,5.229-4.525
		c1.368-0.911,3.027-1.152,4.595-1.512c6.214-1.404,12.606-1.566,18.914-2.25c1.477-0.252,3.07-0.559,4.449,0.216
		c2.959,1.501,4.46,4.658,6.785,6.879c0.883,0.979,2.132-0.173,3.118-0.399c-2.588-3.625-5.281-7.384-9.076-9.835
		C153.181,97.551,147.165,98.552,141.653,97.947 M156.547,108.139c-2.495-1.403-5.486-1.695-8.302-1.721
		c-5.663,0.079-11.527,2.314-15.073,6.876c4.808-0.882,8.925-3.766,13.63-4.957C150.031,107.894,153.304,108.326,156.547,108.139
		 M159.128,111.134c-4.615-0.515-9.22-1.804-13.896-1.17c-3.355,0.403-6.254,2.395-8.654,4.655
		c-0.904,0.907-1.768,1.901-2.186,3.136c3.444-0.497,6.745-1.822,10.248-1.944c1.431-0.114,2.928,0.221,4.284-0.353
		c3.219-1.231,6.6-2.178,10.065-2.203C159.096,112.552,159.143,111.843,159.128,111.134 M168.657,112.704
		c-0.871-0.159-1.749-0.299-2.632-0.4c-0.378,8.244,1.016,16.514,3.604,24.322c0.918,0.565,2.178,0.123,3.223,0.188
		c-0.579-4.847-2.013-9.551-2.88-14.354C169.287,119.245,168.892,115.979,168.657,112.704 M116.087,127.046
		c-0.233-0.825-0.702,0.126-0.728,0.516c-1.357,4.266,0.508,9.496,4.748,11.304C118.459,135.034,117.332,131.017,116.087,127.046
		 M183.73,131.438c-1.269,0-2.538-0.016-3.81,0.021c1.072,2.023,2.541,3.852,4.291,5.335
		C184.198,134.998,183.942,133.216,183.73,131.438 M165.338,135.128c-0.771-0.166-1.544-0.324-2.317-0.481
		c-0.277,3.298-0.709,6.619-0.407,9.929c4.019,1.508,7.921,3.323,12.035,4.567c1.774,0.533,3.683-0.003,5.201-0.976
		c2.543-1.595,4.647-3.766,7.113-5.468c1.584-1.278,3.428-2.365,4.529-4.125c-2.693-0.599-5.35,0.633-7.353,2.365
		c-2.191,1.659-3.951,4.223-6.851,4.654c-4.09,0.752-7.74-1.671-11.545-2.688C165.598,140.312,165.564,137.712,165.338,135.128
		 M192.547,154.063c-8.514,2.801-17.441,4.078-26.345,4.878c-2.979,0.335-5.979,0.46-8.946,0.893
		c4.608,4.356,10.526,7.261,16.751,8.417c6.53,1.268,13.559,0.393,19.354-2.97c1.979-1.048,3.495-2.729,5.048-4.307
		c3.94-4.132,7.479-8.653,10.604-13.428C203.105,148.521,198.127,152.12,192.547,154.063z"/>
	<path fill="#FFFFFF" d="M193.933,103.682c0.04-0.942,0.029-1.894,0.209-2.821c0.54-0.745,1.569-0.516,2.352-0.516
		c1.033-0.079,2.317,0.777,1.977,1.927C196.885,102.483,195.401,103.077,193.933,103.682z"/>
	<path fill="#FFFFFF" d="M149.178,114.593c-1.602,0.221-3.204,0.468-4.795,0.774c0.019-0.756,0.028-1.509,0.032-2.261
		c0.677-0.414,1.307-0.943,2.081-1.146c1.252-0.205,2.639,0.298,3.348,1.364C149.754,113.801,149.411,114.176,149.178,114.593z"/>
	<path fill="#FFFFFF" d="M106.968,119.324c-0.899-2.023-1.706-4.136-1.88-6.368c2.845,1.055,3.33,4.633,2.704,7.239
		C107.399,120.037,107.119,119.72,106.968,119.324z"/>
	<path fill="#FFFFFF" d="M198.883,157.12c-8.377,8.251-21.758,10.325-32.568,6.113c-0.572-0.199-1.139-0.458-1.573-0.894
		c7.274-1.782,14.713-2.769,22.043-4.276c4.784-0.808,9.436-2.211,14.115-3.432C200.398,155.59,199.657,156.379,198.883,157.12z"/>
	<path fill="#FFFFFF" d="M239.206,172.853c3.575,15.037,6.549,30.232,8.392,45.584c1.02,9.087,2.132,18.209,1.786,27.366
		c-0.107,7.175-0.792,14.32-1.651,21.438c-0.974,5.879-0.821,11.861-0.746,17.799c0.021,2.854-0.201,5.706-0.248,8.561
		c-0.662-0.018-1.753,0.651-2.073-0.232c-2.466-6.657-5.281-13.176-7.975-19.739c-1.533-4.315-3.96-8.223-6.148-12.222
		c-6.313-11.104-13.799-21.728-23.476-30.168c0.284-3.91,0.616-7.877,1.722-11.657c6.22,5.588,10.842,12.924,17.988,17.478
		c0.532-0.7,0.875-1.535,0.979-2.41c-0.429-0.821-1.293-1.321-1.939-1.971c-9.864-8.96-19.466-18.27-28.076-28.451
		c-1.321-1.378-3.528-0.684-4.946-1.89c4.102-2.426,8.827-3.711,12.641-6.638c4.021-3.133,7.974-6.395,11.379-10.203
		c3.452-3.971,6.548-8.271,9.04-12.909c1.93-3.566,3.825-7.16,5.972-10.602c0.922-1.391,2.629-1.761,4.177-1.365
		C237.331,164.619,238.098,168.784,239.206,172.853z"/>
	<path fill="#FFFFFF" d="M190.002,204.021c1.521,0.374,3.693,1.339,3.27,3.265c-2.25,10.804-5.599,21.334-8.362,32.008
		c-0.576,2.506-1.387,4.968-1.743,7.521c0.792,0.205,1.599,0.342,2.412,0.421c2.603-7.275,4.528-14.769,6.214-22.307
		c0.835-0.011,1.67-0.007,2.498,0.012c1.016,1.993,1.991,4.021,2.833,6.092c-1.019,1.702-2.361,3.262-2.987,5.198
		c-2.542,6.86-1.151,14.299-2.038,21.408c-1.185,9.966,0.856,19.88,2.475,29.667c0.432,4.771,1.289,9.486,2.081,14.209
		c0.65,4.214,1.468,8.469,1.303,12.744c-3.747-4.61-5.609-10.382-8.165-15.678c-8.784-20.313-15.927-41.281-23.724-61.981
		c-2.581-8.037-3.724-16.439-5.958-24.572c-1.814-7.353-4.854-14.422-5.742-21.985c8.05,3.806,15.142,9.619,23.773,12.161
		C181.977,203.459,186.081,203.247,190.002,204.021z"/>
	<path fill="#FFFFFF" d="M195.772,211.149c0.224-1.395,0.355-2.842,0.997-4.115c2.517,1.273,4.582,3.431,5.777,5.987
		C200.265,212.488,198.037,211.75,195.772,211.149z"/>
	<path fill="#FFFFFF" d="M204.873,223.562c-4.295,0.473-8.464-1.393-11.955-3.735c0.572-0.655,1.177-1.278,1.8-1.876
		c2.392,0.776,4.811,1.563,7.014,2.798C202.943,221.463,204.189,222.284,204.873,223.562z"/>
	<path fill="#FFFFFF" d="M199.97,230.07c-1.989-0.939-2.495-3.341-2.869-5.296c2.664,0.631,5.132,2.021,7.302,3.666
		C203.077,229.235,201.634,230.603,199.97,230.07z"/>
	<path fill="#FFFFFF" d="M70.349,252.499c-1.284,1.922-2.778,3.747-3.622,5.926c3.125-0.817,5.695-2.98,7.713-5.426
		c3.765-4.633,5.863-10.324,9.306-15.17c1.147-1.624,3.164-2.294,5.065-2.463c1.075-0.068,2.293-0.264,3.218,0.422
		c1.403,0.957,2.735,2.12,3.59,3.61c0.748,1.284,0.77,2.934,0.024,4.227c-3.813,6.584-8.319,12.729-12.928,18.773
		c1.774,0.378,4.208,1.084,5.446-0.717c3.798-5.063,5.778-11.238,9.709-16.215c1.199-1.635,2.952-2.967,5.022-3.164
		c1.781-0.19,4.014-0.021,5.082,1.634c1.127,1.746,2.089,3.713,2.199,5.821c0.02,0.868-0.709,1.498-1.188,2.149
		c-2.75,3.278-5.563,6.541-7.81,10.197c-0.918,1.53-1.856,3.078-2.301,4.828c1.037,0.181,2.085,0.576,3.146,0.403
		c3.521-4.929,6.75-10.073,10.253-15.021c2.646,0.75,5.316,2.298,6.498,4.891c0.823,1.821,0.193,3.826-0.221,5.666
		c-1.249,5.489-3.787,10.565-5.371,15.951c-0.985,3.165-1.429,6.451-2.088,9.69c-1.359,9.335,0.324,18.864-1.394,28.163
		c-0.438,2.766-1.446,5.375-2.325,8.018c10.62,0.17,21.24-0.138,31.86,0.047c19.32-0.019,38.643,0.11,57.96-0.098
		c1.82-0.024,4.169,0.738,5.414-1.065c2.026-2.97,4.475-5.615,6.714-8.424c4.792-5.864,9.485-11.822,14.656-17.358
		c1.583-1.671,3.229-3.294,4.61-5.138c2.778-3.558,5.324-7.531,9.342-9.828c1.312,2.484,2.55,5.134,2.841,7.956
		c-0.276,1.3-1.367,2.254-2.103,3.33c-2.499,3.232-5.242,6.264-7.928,9.342c-2.207,2.48-4.188,5.159-6.526,7.517
		c-4.323,4.399-9.181,8.378-12.604,13.572c2.632-0.205,5.259,0.49,7.88,0.13c1.494-0.177,2.448-1.433,3.326-2.517
		c4.09-5.008,8.031-10.148,12.531-14.803c2.683-2.905,5.138-6.815,9.422-7.315c-2.668,4.669-6.066,8.885-9.446,13.054
		c-3.179,3.972-7.085,7.401-9.563,11.901H0.998v-0.324c10.919,0.138,21.841,0.04,32.76,0.068c7.132-0.047,14.265,0.098,21.393-0.068
		c-1.182-1.979-2.637-3.779-3.737-5.807c-3.341-5.781-5.918-12.027-9.989-17.366c-3.475-5.469-8.169-10.39-9.883-16.791
		c-1.274-5.572-3.16-10.983-5.273-16.286c-0.548-1.429-1.084-2.887-1.982-4.136c-3.856-5.422-6.534-11.542-9.652-17.389
		c-0.572-0.993-1.141-2.001-1.447-3.113c6.644-0.894,13.291,2.667,17.015,8.078c1.608,2.553,2.826,5.328,4.31,7.952
		c1.354,2.404,3.121,4.536,4.878,6.651c1.888,2.207,4.154,4.292,5.076,7.121c0.051,2.664-1.998,4.839-2.175,7.481
		c-0.316,5.079,0.86,10.076,1.688,15.055c1.143-0.039,2.279-0.151,3.402-0.342c-1.177-4.563-2.74-9.177-2.308-13.957
		c0.342-4.19,3.483-7.441,4.252-11.518c0.781-4.232,0.192-8.633,1.217-12.829c0.878-2.259,2.616-4.044,4.179-5.845
		c2.538-2.631,5.029-5.31,7.362-8.125c2.477-3.053,4.669-6.332,7.33-9.229c1.127-1.271,2.462-2.675,4.306-2.635
		c3.07-0.02,5.299,2.447,7.581,4.16C78.574,241.926,74.157,247.056,70.349,252.499z"/>
	<path fill="#FFFFFF" d="M201.496,235.708c-1.411,1.512-2.912,3.002-4.727,4.025c0.389-2.078,1.111-4.241,2.675-5.731
		c1.04-0.99,2.522-1.131,3.885-1.059C203.095,234.07,202.198,234.854,201.496,235.708z"/>
	<path fill="#FFFFFF" d="M207.395,243.762c-3.504,4.338-7.252,8.496-10.274,13.197c-0.67-0.165-1.343-0.331-2.023-0.485
		c1.589-5.293,5.23-9.615,8.76-13.74c1.201-1.325,2.304-2.736,3.542-4.025c1.102-1.116,2.789-1.072,4.24-1.127
		C210.5,239.815,208.916,241.781,207.395,243.762z"/>
	<path fill="#FFFFFF" d="M216.998,245.058c0.407,0.831,0.807,1.887,0.198,2.732c-2.984,5.032-6.927,9.396-10.375,14.104
		c-3.543,4.555-6.727,9.552-11.365,13.091c-0.321-2.637-0.493-5.296-0.472-7.949c0.086-3.401,2.068-6.357,4.046-8.989
		c3.748-4.842,7.798-9.445,11.935-13.96c0.989-1.034,1.883-2.175,3.053-3.018C215.068,242.351,216.224,243.578,216.998,245.058z"/>
	<path fill="#FFFFFF" d="M220.064,263.273c-3.77,4.527-7.478,9.11-10.986,13.846c-3.562,4.677-7.089,9.406-11.135,13.68
		c-0.146-1.411-0.068-2.854,0.389-4.204c0.648-2.344,2.326-4.158,3.661-6.124c3.668-5.17,7.286-10.394,11.387-15.234
		c3.294-3.806,6.739-7.585,10.868-10.497C224.05,258.014,222.045,260.797,220.064,263.273z"/>
	<path fill="#FFFFFF" d="M228.73,270.132c-7.398,11.352-16.535,21.401-24.746,32.145c-1.1,1.45-2.549,2.683-4.261,3.349
		c-0.452-3.37-1.396-6.746-1.098-10.166c0.789-3.594,3.838-5.987,6.001-8.763c4.525-5.022,8.363-10.596,12.475-15.944
		c2.916-3.672,5.93-7.348,9.619-10.271c1.292,1.651,2.683,3.315,3.405,5.313C230.761,267.396,229.558,268.864,228.73,270.132z"/>
	<path fill="#FFFFFF" d="M235.523,278.353c-2.397,4.288-5.686,7.972-8.843,11.7c-6.973,8.479-13.262,17.595-21.285,25.144
		c-1.128,1.174-2.64,1.865-4.209,2.229c1.115-5.076,5.284-8.527,8.563-12.258c2.479-3.042,5.116-5.947,7.524-9.044
		c4.166-5.213,8.093-10.608,12.358-15.738c0.781-0.896,1.304-2.03,2.271-2.747c1.296-0.789,2.854-0.962,4.342-0.982
		C236.038,277.228,235.826,277.812,235.523,278.353z"/>
	<path d="M174.311,0.999c5.896,0.684,11.185,3.564,16.895,4.957c5.112,1.418,9.146,5.087,12.805,8.752
		c4.599,4.763,9.648,9.061,14.225,13.849c2.135,2.282,4.101,4.828,5.158,7.806c1.714,4.78,2.912,9.745,3.641,14.771
		c0.993,5.526,1.411,11.153,2.765,16.611c2.935,0.903,6.026,1.422,8.813,2.711c1.592,2.513,2.664,5.332,3.802,8.074
		c2.599,6.814,3.968,14.224,3.071,21.51c-0.312,2.585-1.139,5.062-1.805,7.567c-1.477,5.591-0.359,11.522-1.903,17.104
		c-0.774,2.88-3.402,4.562-5.357,6.588c-0.615,0.547-0.417,1.44-0.486,2.171c0.072,6.269,0.052,12.567-0.917,18.771
		c-0.181,0.518,0.094,0.981,0.611,1.127c17.244,7.063,31.32,19.995,48.597,26.989c2.732,1.127,5.706,1.356,8.594,1.828
		c19.768,2.487,39.057,7.644,58.551,11.61c7.621,0.979,14.292,5.162,21.723,6.854c4.827,1.439,8.184,5.555,10.895,9.571
		c2.686,4.142,5.638,8.104,8.2,12.323c3.405,5.497,6.522,11.175,10.025,16.614c3.708,5.567,4.807,12.377,8.141,18.141
		c5.575,9.59,6.911,20.837,11.142,30.979c5.005,11.639,8.496,23.856,11.51,36.144v0.299c-29.521,0.063-59.04,0.008-88.561,0.025
		c-33.379-0.039-66.758,0.094-100.138-0.086c-0.291-5.595,0.724-11.164,0.489-16.755c-3.831,2.229-6.821,5.655-9.429,9.181
		c-2.207,2.948-4.107,6.53-7.747,7.916h-1.847c2.477-4.5,6.383-7.931,9.562-11.9c3.38-4.17,6.778-8.386,9.446-13.055
		c-4.284,0.5-6.739,4.41-9.421,7.315c-4.5,4.653-8.442,9.795-12.532,14.803c-0.878,1.084-1.832,2.34-3.326,2.517
		c-2.621,0.36-5.248-0.335-7.88-0.13c3.423-5.193,8.279-9.173,12.604-13.571c2.34-2.357,4.318-5.036,6.525-7.518
		c2.687-3.078,5.43-6.107,7.928-9.342c0.734-1.076,1.825-2.03,2.103-3.33c-0.291-2.822-1.529-5.472-2.84-7.956
		c-4.019,2.297-6.563,6.271-9.343,9.828c-1.383,1.844-3.027,3.467-4.61,5.138c-5.17,5.536-9.864,11.494-14.656,17.358
		c-2.239,2.809-4.687,5.454-6.714,8.424c-1.245,1.805-3.593,1.041-5.414,1.066c-19.317,0.208-38.639,0.078-57.96,0.097
		c-10.62-0.185-21.24,0.123-31.86-0.047c0.879-2.643,1.888-5.252,2.325-8.018c1.718-9.299,0.033-18.828,1.395-28.163
		c0.658-3.239,1.102-6.525,2.088-9.69c1.584-5.385,4.122-10.462,5.371-15.951c0.414-1.84,1.044-3.845,0.22-5.666
		c-1.181-2.593-3.852-4.141-6.498-4.89c-3.503,4.945-6.731,10.091-10.253,15.02c-1.063,0.173-2.109-0.224-3.146-0.403
		c0.443-1.75,1.384-3.298,2.302-4.827c2.246-3.657,5.059-6.919,7.809-10.198c0.479-0.651,1.206-1.281,1.188-2.149
		c-0.11-2.108-1.071-4.075-2.198-5.82c-1.069-1.655-3.302-1.825-5.083-1.635c-2.07,0.197-3.823,1.529-5.022,3.164
		c-3.931,4.977-5.911,11.152-9.709,16.216c-1.238,1.8-3.672,1.094-5.446,0.716c4.607-6.044,9.114-12.189,12.929-18.773
		c0.744-1.293,0.723-2.94-0.025-4.227c-0.854-1.49-2.186-2.653-3.59-3.61c-0.925-0.685-2.142-0.49-3.218-0.422
		c-1.901,0.169-3.917,0.839-5.065,2.463c-3.44,4.846-5.541,10.537-9.306,15.17c-2.018,2.444-4.587,4.607-7.712,5.426
		c0.843-2.179,2.337-4.004,3.622-5.926c3.809-5.443,8.226-10.573,10.946-16.689c-2.281-1.714-4.511-4.181-7.581-4.161
		c-1.844-0.04-3.179,1.363-4.306,2.635c-2.661,2.897-4.854,6.178-7.33,9.229c-2.333,2.815-4.824,5.494-7.361,8.125
		c-1.563,1.802-3.302,3.586-4.18,5.845c-1.022,4.196-0.436,8.597-1.217,12.83c-0.768,4.074-3.91,7.325-4.252,11.517
		c-0.433,4.78,1.131,9.396,2.308,13.957c-1.123,0.19-2.261,0.303-3.401,0.342c-0.828-4.979-2.005-9.976-1.688-15.055
		c0.178-2.644,2.227-4.817,2.175-7.481c-0.922-2.829-3.188-4.914-5.075-7.121c-1.758-2.115-3.524-4.247-4.878-6.651
		c-1.483-2.624-2.7-5.399-4.311-7.952c-3.723-5.411-10.371-8.972-17.014-8.078c0.307,1.112,0.875,2.12,1.446,3.113
		c3.118,5.847,5.797,11.967,9.652,17.389c0.899,1.249,1.437,2.707,1.983,4.136c2.112,5.304,3.999,10.714,5.272,16.286
		c1.714,6.401,6.408,11.322,9.883,16.791c4.071,5.339,6.648,11.585,9.989,17.366c1.103,2.026,2.558,3.827,3.737,5.807
		c-7.128,0.166-14.26,0.021-21.392,0.068c-10.92-0.028-21.841,0.068-32.761-0.068v-0.571c1.163-6.505,1.678-13.111,2.967-19.596
		c0.512-2.643,1.234-5.233,1.793-7.865c1.49-7.109,2.711-14.356,5.504-21.104c0.604-1.573,1.281-3.179,2.521-4.363
		c2.021-2.116,4.811-3.282,6.865-5.347c-0.421-2.273-1.765-4.262-2.671-6.371c-1.521-2.92-2.211-6.211-4-9
		c-1.504-2.604-3.434-5.016-4.405-7.892l0.14-0.249c2.981-1.407,6.321-2.415,9.651-1.997c2.056,0.216,3.845,1.355,5.548,2.439
		c5.177,3.396,8.979,8.488,11.858,13.894c3.751-0.954,7.16-2.924,10.396-5.001c3.118-2.1,6.229-4.283,8.811-7.041
		c4.453-4.702,7.719-10.458,12.621-14.749c1.065-0.9,2.186-2.023,3.687-1.98c3.568-0.126,6.29,2.542,9.396,3.846
		c0.697,0.335,1.497,0.409,2.218,0.114c6.797-2.304,12.531-6.743,18.331-10.82c7.487-5.182,14.813-10.589,22.046-16.125
		c2.708-2.325,5.005-5.079,7.314-7.783c3.396-4.169,6.861-8.276,10.229-12.47c1.005-1.377,2.357-2.842,2.318-4.642
		c-1.506-4.241-4.874-7.463-6.854-11.466c-2.235-3.543-3.07-7.729-5.216-11.313c-0.339-0.601-0.8-1.147-1.438-1.45
		c-2.864-1.505-6.099-2.293-8.752-4.205c-1.688-1.177-2.891-2.88-4.172-4.46c-3.236-4.046-6.365-8.215-8.813-12.798
		c-2.139-3.846-3.247-8.133-4.665-12.272c-1.648-5.681-3.302-11.408-3.964-17.301c2.404-1.231,4.906-2.243,7.341-3.402
		c-0.241-0.99-0.565-1.962-1.037-2.869c-2.329-4.997-5.576-9.611-6.998-14.994c-0.681-2.347-0.587-4.813-0.872-7.221
		c-0.855-8.144-1.663-16.297-1.907-24.483c-0.024-2.813-0.54-5.749,0.508-8.445c0.989-2.614,2.506-4.979,3.696-7.499
		c1.16-2.196,2.101-4.519,3.496-6.577c1.048-1.584,2.696-2.588,4.154-3.744c3.566-2.804,6.883-5.965,10.816-8.266
		c1.541-0.914,3.212-1.569,4.796-2.394c4.86-2.55,8.874-6.445,13.807-8.867c5.847-2.354,12.251-2.336,18.433-2.98
		c4.409-0.583,8.755-1.566,13.188-1.995h4.623 M189.879,40.332c-1.512-0.497-2.923,0.458-4.345,0.828
		c-6.502,1.973-13.367,2.605-19.706,5.147c-5.059,1.769-8.871,5.686-12.903,9.033c-1.698,1.556-4.294,1.541-6.267,0.533
		c-1.887-0.947-4.02-0.994-6.045-1.418c-2.64-0.338-5.148-1.461-7.858-1.268c-4.547,0.197-9.685,0.41-13.155,3.772
		c-1.194,1.339-2.923,2.11-3.897,3.654c-1.53,1.832-3.424,3.44-4.349,5.706c-0.615,1.706-1.474,3.365-1.569,5.212
		c-0.051,1.494-0.947,2.837-0.796,4.353c-0.047,2.136,1.098,4.032,1.356,6.116c0.201,1.256,0.059,2.589,0.575,3.776
		c0.71,1.778,2.006,3.313,2.341,5.234c1.222,6.883,2.397,13.886,1.804,20.897c-3.061-2.347-5.67-5.45-9.342-6.883
		c-1.159,0.406-1.817,1.681-2.676,2.526c3.593,4.701,9.688,6.192,14.162,9.792c1.063,1.198,1.588,2.766,2.266,4.194
		c1.084,2.902,2.017,5.933,2.06,9.054c-2.527-2.826-4.374-6.155-6.487-9.285c-0.741-1.032-1.386-2.159-2.365-2.994
		c-1.087,2.084-2.036,4.236-3.172,6.296c-0.646,1.076-0.673,2.422-0.212,3.574c3.187,7.467,7.873,14.188,12.929,20.499
		c1.685,2.235,4.68,2.667,7.281,2.862c-2.459-6.919-6.32-13.396-7.628-20.688c1.454,0.717,2.427,2.069,3.272,3.398
		c2.037,3.29,2.896,7.11,4.527,10.591c4.907,11.322,9.104,23.281,17.208,32.821c5.016,6.923,12.024,12.093,19.415,16.229
		c4.658,2.563,9.446,5.205,14.771,6.013c3.489,0.532,6.88-0.608,10.234-1.364c5.151-1.217,10.387-2.952,14.466-6.455
		c10.04-8.646,17.845-19.718,23.295-31.752c2.646-6.566,3.604-13.698,3.557-20.743c0.123-9.249-1.091-18.458-0.938-27.706
		c0.442-5.807-1.439-11.4-2.376-17.061c-0.241-1.379-0.565-2.787-0.386-4.19c1.351-5.051,3.396-9.915,4.437-15.048
		c0.709-0.064,1.422-0.104,2.131-0.116c-0.713,2.949-1.974,5.739-2.736,8.673l0.047,0.311c2.149,2.448,4.824,4.507,6.329,7.463
		c2.282,4.075,0.461,9.63-3.406,12.035c0.927-3.773,2.815-7.582,1.822-11.553c-0.533-2.534-2.999-3.992-5.307-4.669
		c-0.792,7.668,1.753,15.127,2.191,22.733c0.457,4.986,0.277,10.001,0.651,14.99c0.835,0.08,1.667,0.162,2.498,0.245
		c1.063-4.676,1.516-9.464,2.333-14.188c0.559-4.562,1.75-9.015,2.405-13.562c0.583-6.08-0.922-12.136-2.92-17.834
		c-0.973-2.743-2.021-5.642-4.28-7.606c-1.055-0.882-2.541-1.605-3.924-1.138c-2.235,1.775-3.215,4.655-3.633,7.383
		c-0.264,2.301-0.638,4.583-1.013,6.869c-1.15-0.382-1.8-1.494-2.526-2.391c-3.365-4.645-3.909-10.541-4.878-16.023
		c-0.508-3.888-3.723-6.516-6.188-9.263c-1.944-2.671-3.629-5.706-6.455-7.567c-2.059-1.393-3.539-3.438-5.486-4.968
		c-1.82-1.573-3.762-3.107-6.052-3.936C193.27,41.11,191.561,40.783,189.879,40.332 M107.792,120.195
		c0.626-2.606,0.141-6.186-2.704-7.239c0.174,2.232,0.979,4.345,1.88,6.368C107.119,119.72,107.399,120.037,107.792,120.195
		 M235.999,160.619c-1.548-0.396-3.255-0.025-4.177,1.365c-2.146,3.441-4.042,7.034-5.973,10.602
		c-2.49,4.64-5.588,8.938-9.039,12.909c-3.406,3.81-7.359,7.07-11.38,10.203c-3.813,2.927-8.539,4.212-12.64,6.638
		c1.418,1.206,3.625,0.512,4.946,1.89c8.61,10.183,18.212,19.491,28.075,28.451c0.647,0.648,1.513,1.148,1.94,1.971
		c-0.104,0.875-0.447,1.71-0.979,2.41c-7.146-4.554-11.77-11.89-17.988-17.478c-1.105,3.78-1.438,7.747-1.722,11.657
		c9.677,8.44,17.16,19.064,23.476,30.168c2.188,3.999,4.615,7.904,6.148,12.222c2.692,6.563,5.509,13.082,7.975,19.739
		c0.32,0.885,1.411,0.216,2.073,0.232c0.047-2.854,0.271-5.706,0.248-8.561c-0.075-5.938-0.228-11.92,0.746-17.799
		c0.859-7.117,1.544-14.264,1.651-21.438c0.345-9.158-0.768-18.28-1.786-27.367c-1.843-15.351-4.815-30.546-8.392-45.583
		C238.098,168.784,237.331,164.619,235.999,160.619 M178.14,202.203c-8.633-2.542-15.725-8.355-23.773-12.161
		c0.89,7.563,3.928,14.634,5.742,21.985c2.234,8.133,3.377,16.534,5.958,24.572c7.797,20.7,14.938,41.667,23.724,61.981
		c2.556,5.296,4.418,11.066,8.165,15.678c0.165-4.275-0.651-8.531-1.303-12.744c-0.792-4.723-1.649-9.438-2.081-14.209
		c-1.617-9.788-3.658-19.701-2.475-29.667c0.887-7.109-0.504-14.548,2.038-21.408c0.626-1.938,1.97-3.496,2.987-5.198
		c-0.842-2.07-1.817-4.099-2.833-6.092c-0.828-0.019-1.663-0.021-2.498-0.012c-1.686,7.538-3.611,15.03-6.214,22.307
		c-0.813-0.079-1.62-0.217-2.412-0.421c0.356-2.554,1.167-5.016,1.743-7.521c2.765-10.674,6.112-21.204,8.362-32.008
		c0.425-1.926-1.749-2.892-3.27-3.265C186.081,203.247,181.977,203.459,178.14,202.203 M202.548,213.021
		c-1.194-2.558-3.262-4.714-5.778-5.987c-0.641,1.273-0.772,2.722-0.996,4.115C198.037,211.75,200.265,212.488,202.548,213.021
		 M201.73,220.747c-2.203-1.235-4.622-2.021-7.014-2.798c-0.623,0.598-1.228,1.221-1.8,1.876c3.491,2.344,7.66,4.208,11.955,3.735
		C204.189,222.284,202.943,221.463,201.73,220.747 M204.401,228.44c-2.17-1.646-4.638-3.035-7.302-3.666
		c0.374,1.955,0.88,4.355,2.869,5.296C201.634,230.603,203.077,229.235,204.401,228.44 M203.329,232.943
		c-1.361-0.072-2.845,0.067-3.885,1.059c-1.563,1.49-2.286,3.653-2.675,5.731c1.813-1.023,3.314-2.515,4.727-4.025
		C202.198,234.854,203.095,234.07,203.329,232.943 M211.638,237.58c-1.45,0.055-3.14,0.011-4.24,1.127
		c-1.238,1.289-2.341,2.7-3.542,4.025c-3.528,4.125-7.172,8.447-8.76,13.74c0.682,0.154,1.354,0.32,2.023,0.485
		c3.023-4.701,6.771-8.859,10.273-13.197C208.916,241.781,210.5,239.815,211.638,237.58 M214.018,241.068
		c-1.17,0.843-2.063,1.982-3.053,3.018c-4.137,4.514-8.187,9.118-11.935,13.96c-1.978,2.632-3.96,5.588-4.046,8.989
		c-0.021,2.653,0.149,5.313,0.472,7.949c4.64-3.539,7.822-8.536,11.365-13.091c3.448-4.709,7.391-9.071,10.375-14.104
		c0.608-0.847,0.209-1.901-0.198-2.732C216.224,243.578,215.068,242.351,214.018,241.068 M224.248,254.738
		c-4.129,2.912-7.574,6.691-10.868,10.497c-4.101,4.842-7.719,10.064-11.387,15.234c-1.335,1.967-3.013,3.78-3.661,6.124
		c-0.457,1.351-0.533,2.793-0.389,4.204c4.046-4.272,7.573-9.003,11.135-13.68c3.51-4.734,7.218-9.317,10.986-13.846
		C222.045,260.797,224.05,258.014,224.248,254.738 M230.127,265.794c-0.724-1.998-2.113-3.662-3.405-5.314
		c-3.689,2.925-6.702,6.601-9.618,10.271c-4.111,5.35-7.949,10.922-12.476,15.944c-2.163,2.774-5.212,5.169-6.001,8.763
		c-0.299,3.42,0.646,6.796,1.098,10.166c1.712-0.666,3.161-1.897,4.261-3.349c8.211-10.742,17.348-20.794,24.746-32.145
		C229.558,268.864,230.761,267.396,230.127,265.794 M231.905,277.638c-0.97,0.717-1.49,1.852-2.271,2.747
		c-4.266,5.13-8.192,10.525-12.358,15.738c-2.408,3.097-5.047,6.002-7.524,9.044c-3.279,3.729-7.448,7.182-8.563,12.258
		c1.569-0.363,3.081-1.055,4.209-2.229c8.023-7.549,14.313-16.664,21.285-25.144c3.157-3.729,6.444-7.412,8.843-11.7
		c0.303-0.543,0.515-1.127,0.724-1.698C234.76,276.676,233.201,276.849,231.905,277.638z"/>
	<path d="M218.106,90.254c-0.677,0.58-1.214,2.171-2.301,1.56c-2.786-1.375-5.663-3.187-8.909-2.869
		c-3.855,0.54-7.688,1.433-11.271,2.992c-5.433,2.214-10.296,5.544-15.02,8.971c-0.752-1.757-1.013-3.705-0.946-5.609
		c0.054-2.148,1.271-4.313,3.269-5.213c4.847-2.333,9.808-4.46,14.977-5.954c2.479-0.893,5.166-0.306,7.621,0.364
		C209.936,85.905,213.862,88.447,218.106,90.254z"/>
	<path d="M190.945,97.346c-2.704,1.679-4.513,4.39-6.601,6.726c-1.044,1.115-1.946,2.433-3.321,3.168
		c0.646-3.611,3.002-6.7,5.709-9.068c2.573-2.121,5.619-3.989,9.044-4.133c2.793-0.102,5.604-0.076,8.377,0.328
		C200.057,96.528,194.995,94.991,190.945,97.346z"/>
	<path d="M210.756,98.39c-0.051,0.872-0.15,1.739-0.31,2.597c-2.475,0.043-4.979-0.311-7.432,0.097
		c-2.403,0.997-3.83,3.711-6.536,4.108c-2.129,0.255-3.662-1.487-5.4-2.392c-1.804,1.213-3.393,2.772-5.386,3.69
		c0.519-3.189,2.771-5.781,5.271-7.675c1.148-0.9,2.649-1.033,4.039-1.238C200.255,97,205.586,97.317,210.756,98.39
		 M196.492,100.345c-0.781,0-1.812-0.229-2.352,0.516c-0.18,0.929-0.169,1.879-0.209,2.821c1.47-0.604,2.952-1.198,4.536-1.41
		C198.811,101.122,197.525,100.266,196.492,100.345z"/>
	<path d="M158.17,100.514c3.795,2.452,6.488,6.21,9.076,9.835c-0.986,0.228-2.235,1.379-3.118,0.399
		c-2.325-2.221-3.826-5.378-6.785-6.879c-1.379-0.774-2.974-0.468-4.45-0.216c-6.307,0.684-12.699,0.846-18.913,2.25
		c-1.566,0.359-3.227,0.601-4.595,1.512c-1.977,1.235-3.29,3.247-5.229,4.525c0.039-2.959-0.367-6.553,2.103-8.724
		c3.779-4.291,9.82-6.124,15.396-5.271C147.165,98.552,153.181,97.551,158.17,100.514z"/>
	<path d="M146.802,108.337c-4.705,1.191-8.822,4.075-13.63,4.957c3.546-4.562,9.41-6.797,15.073-6.876
		c2.815,0.025,5.807,0.316,8.302,1.721C153.304,108.326,150.031,107.894,146.802,108.337z"/>
	<path d="M159.128,111.134c0.015,0.709-0.032,1.418-0.137,2.121c-3.467,0.025-6.849,0.972-10.065,2.203
		c-1.356,0.572-2.854,0.237-4.284,0.354c-3.503,0.122-6.804,1.447-10.249,1.943c0.418-1.234,1.281-2.229,2.187-3.136
		c2.399-2.261,5.299-4.251,8.654-4.655C149.908,109.33,154.513,110.619,159.128,111.134 M146.496,111.962
		c-0.774,0.202-1.404,0.73-2.081,1.146c-0.004,0.752-0.015,1.505-0.032,2.261c1.591-0.307,3.193-0.555,4.795-0.774
		c0.233-0.417,0.576-0.792,0.666-1.267C149.135,112.26,147.748,111.757,146.496,111.962z"/>
	<path d="M169.972,122.459c0.867,4.803,2.301,9.507,2.88,14.353c-1.045-0.063-2.305,0.379-3.223-0.187
		c-2.588-7.809-3.98-16.078-3.604-24.322c0.883,0.102,1.761,0.241,2.632,0.4C168.892,115.979,169.287,119.245,169.972,122.459z"/>
	<path d="M120.107,138.865c-4.24-1.808-6.105-7.038-4.748-11.304c0.024-0.39,0.492-1.34,0.728-0.516
		C117.332,131.017,118.459,135.034,120.107,138.865z"/>
	<path d="M184.213,136.794c-1.75-1.482-3.219-3.312-4.291-5.335c1.271-0.036,2.541-0.021,3.81-0.021
		C183.942,133.216,184.198,134.998,184.213,136.794z"/>
	<path d="M165.745,142.904c3.805,1.019,7.455,3.441,11.545,2.688c2.898-0.432,4.658-2.996,6.851-4.654
		c2.002-1.731,4.658-2.963,7.353-2.365c-1.103,1.76-2.945,2.847-4.529,4.125c-2.466,1.703-4.571,3.874-7.112,5.468
		c-1.521,0.972-3.428,1.508-5.202,0.976c-4.114-1.245-8.018-3.06-12.035-4.567c-0.302-3.31,0.13-6.631,0.407-9.929
		c0.773,0.157,1.548,0.316,2.317,0.481C165.564,137.712,165.598,140.312,165.745,142.904z"/>
	<path d="M209.014,147.548c-3.125,4.773-6.664,9.295-10.604,13.428c-1.553,1.577-3.067,3.259-5.048,4.307
		c-5.796,3.361-12.823,4.236-19.354,2.97c-6.225-1.155-12.143-4.061-16.751-8.417c2.967-0.432,5.969-0.558,8.946-0.893
		c8.902-0.8,17.831-2.077,26.345-4.878C198.127,152.12,203.105,148.521,209.014,147.548 M186.783,158.063
		c-7.33,1.508-14.769,2.494-22.043,4.276c0.436,0.437,1.001,0.694,1.572,0.894c10.813,4.212,24.192,2.138,32.569-6.113
		c0.774-0.741,1.517-1.53,2.017-2.488C196.219,155.853,191.567,157.257,186.783,158.063z"/>
</g>
</svg>
